# xmcd
#
# Track frame offsets:
#	150
#	13620
#	27306
#	39271
#	53799
#	68204
#	80122
#	92991
#	101924
#	115768
#	127185
#	139505
#
# Disc length: 2039 seconds
#
# Revision: 1
# Processed by: cddbd v1.5.2PL0 Copyright (c) Steve Scherf et al.
# Submitted via: audiograbber 1.83.01
#
DISCID=a407f50c
DTITLE=Bobbie Gentry - The Delta Sweete
DYEAR=1968
DGENRE=Country
TTITLE0=Okolona River Bottom Band
TTITLE1=Big Boss Man
TTITLE2=Reunion
TTITLE3=Parchman Farm
TTITLE4=Mornin' Glory
TTITLE5=Sermon
TTITLE6=Tobacco Road
TTITLE7=Penduli Pendulum
TTITLE8=Jessye' Lisabeth
TTITLE9=Refractions
TTITLE10=Louisiana Man
TTITLE11=Courtyard
EXTD=
EXTT0=
EXTT1=
EXTT2=
EXTT3=
EXTT4=
EXTT5=
EXTT6=
EXTT7=
EXTT8=
EXTT9=
EXTT10=
EXTT11=
PLAYORDER=
